<svg width="150" height="151" viewBox="0 0 150 151" fill="none" xmlns="http://www.w3.org/2000/svg">
<rect width="150" height="151" fill="#90B3B7"/>
<path d="M27.9102 68.6055H26.3867L23.0469 81.0762H23.0078L19.9121 68.6055H18.5547L22.2754 83H23.7695L27.1094 70.2852H27.1484L30.4883 83H31.9922L35.7715 68.6055H34.375L31.2305 81.0762H31.1914L27.9102 68.6055ZM39.5215 83V68.6055H38.1641V83H39.5215ZM41.9531 69.7578H46.5137V83H47.8711V69.7578H52.4316V68.6055H41.9531V69.7578ZM53.0859 69.7578H57.6465V83H59.0039V69.7578H63.5645V68.6055H53.0859V69.7578ZM75.293 83V81.8379H66.875V76.125H74.2969V74.9629H66.875V69.7578H75.0977V68.6055H65.5176V83H75.293ZM87.3828 83H88.9648V68.6055H87.5977V81.1836H87.5586L79.2383 68.6055H77.7051V83H79.0625V70.4414H79.1016L87.3828 83ZM93.5352 83V75.9395H102.051V83H103.418V68.6055H102.051V74.7773H93.5352V68.6055H92.1777V83H93.5352ZM106.094 75.8223C106.094 77.9251 106.66 79.6992 107.793 81.1445C108.913 82.6094 110.579 83.3548 112.793 83.3809C115.02 83.3548 116.699 82.6094 117.832 81.1445C118.952 79.6992 119.512 77.9251 119.512 75.8223C119.512 73.6478 118.952 71.8477 117.832 70.4219C116.699 68.9831 114.997 68.2507 112.725 68.2246C110.583 68.2507 108.945 68.9896 107.812 70.4414C106.667 71.8672 106.094 73.6608 106.094 75.8223ZM112.812 82.2188C110.944 82.1927 109.583 81.5449 108.73 80.2754C108.288 79.6895 107.969 79.0124 107.773 78.2441C107.559 77.4694 107.451 76.6621 107.451 75.8223C107.451 74.0775 107.884 72.5768 108.75 71.3203C109.603 70.0573 110.944 69.4095 112.773 69.377C116.289 69.4616 118.079 71.61 118.145 75.8223C118.145 77.554 117.725 79.0384 116.885 80.2754C116.032 81.5449 114.674 82.1927 112.812 82.2188ZM123.438 83V76.125H130.635V74.9629H123.438V69.7578H131.357V68.6055H122.08V83H123.438Z" fill="white"/>
<line x1="17" y1="76.5" x2="2" y2="76.5" stroke="white"/>
<line x1="133" y1="75.5" x2="148" y2="75.5" stroke="white"/>
</svg>
