<svg width="360" height="360" viewBox="0 0 360 360" fill="none" xmlns="http://www.w3.org/2000/svg">
<g clip-path="url(#clip0_18_91)">
<rect width="360" height="360" fill="#90B3B7"/>
<path d="M86.3203 166.211H83.2734L76.5938 191.152H76.5156L70.3242 166.211H67.6094L75.0508 195H78.0391L84.7188 169.57H84.7969L91.4766 195H94.4844L102.043 166.211H99.25L92.9609 191.152H92.8828L86.3203 166.211ZM109.543 195V166.211H106.828V195H109.543ZM114.406 168.516H123.527V195H126.242V168.516H135.363V166.211H114.406V168.516ZM136.672 168.516H145.793V195H148.508V168.516H157.629V166.211H136.672V168.516ZM181.086 195V192.676H164.25V181.25H179.094V178.926H164.25V168.516H180.695V166.211H161.535V195H181.086ZM205.266 195H208.43V166.211H205.695V191.367H205.617L188.977 166.211H185.91V195H188.625V169.883H188.703L205.266 195ZM217.57 195V180.879H234.602V195H237.336V166.211H234.602V178.555H217.57V166.211H214.855V195H217.57ZM242.688 180.645C242.688 184.85 243.82 188.398 246.086 191.289C248.326 194.219 251.659 195.71 256.086 195.762C260.539 195.71 263.898 194.219 266.164 191.289C268.404 188.398 269.523 184.85 269.523 180.645C269.523 176.296 268.404 172.695 266.164 169.844C263.898 166.966 260.493 165.501 255.949 165.449C251.665 165.501 248.391 166.979 246.125 169.883C243.833 172.734 242.688 176.322 242.688 180.645ZM256.125 193.438C252.388 193.385 249.667 192.09 247.961 189.551C247.076 188.379 246.438 187.025 246.047 185.488C245.617 183.939 245.402 182.324 245.402 180.645C245.402 177.155 246.268 174.154 248 171.641C249.706 169.115 252.388 167.819 256.047 167.754C263.078 167.923 266.659 172.22 266.789 180.645C266.789 184.108 265.949 187.077 264.27 189.551C262.564 192.09 259.849 193.385 256.125 193.438ZM277.375 195V181.25H291.77V178.926H277.375V168.516H293.215V166.211H274.66V195H277.375Z" fill="white"/>
<line x1="65" y1="179.5" x2="47" y2="179.5" stroke="white"/>
<line x1="298" y1="179.5" x2="317" y2="179.5" stroke="white"/>
</g>
<defs>
<clipPath id="clip0_18_91">
<rect width="360" height="360" fill="white"/>
</clipPath>
</defs>
</svg>
